<svg width="1000" height="1000" viewBox="0 0 1000 1000" xmlns="http://www.w3.org/2000/svg"><defs/><path fill="#1b00ff" transform="matrix(0.5137078514059122 0 0 0.5137078514059122 2.4314607429704393 58.5329443042752)" d="M 620.66159986297 833.67377536185 L 620.66159986297 940.47377536185 L 480.16159986297 1021.57377536185 L 339.66159986297 940.47377536185 L 339.66159986297 778.27377536185 L 480.16159986297 697.17377536185 L 574.26159986297 751.47377536185 L 627.06159986297 721.47377536185 L 480.16159986297 636.67377536185 L 287.26159986297 747.97377536185 L 287.26159986297 970.77377536185 L 480.16159986297 1082.07377536185 L 672.96159986297 970.77377536185 L 672.96159986297 803.87377536185 Z"/><path fill="#1b00ff" transform="matrix(0.5137078514059122 0 0 0.5137078514059122 2.4314607429704393 58.5329443042752)" d="M 777.26159986297 681.67377536185 L 652.16159986297 691.47377536185 L 672.06159986297 720.47377536185 L 485.36159986297 844.27377536185 L 415.16159986297 783.37377536185 L 485.36159986297 884.37377536185 L 700.46159986297 761.87377536185 L 723.16159986297 794.87377536185 Z"/><g opacity="0.19" transform="matrix(0.5137078514059122 0 0 0.5137078514059122 2.4314607429704393 58.5329443042752)"><path d="M 356.26159986297 788.77377536185 L 356.26159986297 918.77377536185 L 378.36159986297 797.87377536185 L 485.46159986297 718.77377536185 Z"/></g><path id="text" fill="#1b00ff" transform="matrix(1.7558214063592772 0 0 1.7558214063592772 305.49576063431573 137.0506836799908)" d="M 109.11368092084 174.13385322596 C 112.73868092084 174.13385322596 116.05118092084 174.63385322596 119.05118092084 175.63385322596 C 122.05118092084 176.63385322596 124.58243092084 177.79010322596 126.64493092084 179.10260322596 L 126.64493092084 191.94635322596 C 124.39493092084 190.57135322596 121.98868092084 189.29010322596 119.42618092084 188.10260322596 C 116.86368092084 186.91510322596 113.95743092084 186.32135322596 110.70743092084 186.32135322596 C 109.08243092084 186.32135322596 107.47305592084 186.57135322596 105.87930592084 187.07135322596 C 104.28555592084 187.57135322596 102.97305592084 188.32135322596 101.94180592084 189.32135322596 C 100.91055592084 190.32135322596 100.39493092084 191.60260322596 100.39493092084 193.16510322596 C 100.39493092084 195.22760322596 101.30118092084 196.79010322596 103.11368092084 197.85260322596 C 104.92618092084 198.91510322596 107.14493092084 199.97760322596 109.76993092084 201.04010322596 L 117.45743092084 204.22760322596 C 121.83243092084 206.10260322596 125.05118092084 208.38385322596 127.11368092084 211.07135322596 C 129.17618092084 213.75885322596 130.20743092084 216.82135322596 130.20743092084 220.25885322596 C 130.20743092084 224.00885322596 129.12930592084 227.30572822596 126.97305592084 230.14947822596 C 124.81680592084 232.99322822596 121.94180592084 235.22760322596 118.34805592084 236.85260322596 C 114.75430592084 238.47760322596 110.76993092084 239.29010322596 106.39493092084 239.29010322596 C 102.70743092084 239.29010322596 99.17618092084 238.66510322596 95.80118092084 237.41510322596 C 92.42618092084 236.16510322596 89.48868092084 234.63385322596 86.98868092084 232.82135322596 L 86.98868092084 219.97760322596 C 89.73868092084 221.97760322596 92.76993092084 223.66510322596 96.08243092084 225.04010322596 C 99.39493092084 226.41510322596 102.92618092084 227.10260322596 106.67618092084 227.10260322596 C 109.30118092084 227.10260322596 111.55118092084 226.58697822596 113.42618092084 225.55572822596 C 115.30118092084 224.52447822596 116.23868092084 222.97760322596 116.23868092084 220.91510322596 C 116.23868092084 219.29010322596 115.47305592084 217.96197822596 113.94180592084 216.93072822596 C 112.41055592084 215.89947822596 110.73868092084 215.04010322596 108.92618092084 214.35260322596 L 99.26993092084 210.60260322596 C 94.39493092084 208.72760322596 91.09805592084 206.27447822596 89.37930592084 203.24322822596 C 87.66055592084 200.21197822596 86.80118092084 196.85260322596 86.80118092084 193.16510322596 C 86.80118092084 189.35260322596 87.84805592084 186.02447822596 89.94180592084 183.18072822596 C 92.03555592084 180.33697822596 94.76993092084 178.11822822596 98.14493092084 176.52447822596 C 101.51993092084 174.93072822596 105.17618092084 174.13385322596 109.11368092084 174.13385322596 Z M 177.08243092084 226.44635322596 L 177.08243092084 238.16510322596 L 142.86368092084 238.16510322596 L 142.86368092084 226.44635322596 L 153.45743092084 226.44635322596 L 153.45743092084 187.07135322596 L 142.86368092084 187.07135322596 L 142.86368092084 175.35260322596 L 177.08243092084 175.35260322596 L 177.08243092084 187.07135322596 L 166.48868092084 187.07135322596 L 166.48868092084 226.44635322596 L 177.08243092084 226.44635322596 Z M 257.61368092084 174.88385322596 L 257.61368092084 238.16510322596 L 244.58243092084 238.16510322596 L 244.58243092084 199.91510322596 L 228.45743092084 217.54010322596 L 224.70743092084 217.54010322596 L 208.39493092084 199.91510322596 L 208.39493092084 238.16510322596 L 195.36368092084 238.16510322596 L 195.36368092084 174.88385322596 L 199.76993092084 174.88385322596 L 226.58243092084 202.82135322596 L 253.20743092084 174.88385322596 L 257.61368092084 174.88385322596 Z M 310.11368092084 226.44635322596 L 310.11368092084 238.16510322596 L 275.89493092084 238.16510322596 L 275.89493092084 226.44635322596 L 286.48868092084 226.44635322596 L 286.48868092084 187.07135322596 L 275.89493092084 187.07135322596 L 275.89493092084 175.35260322596 L 310.11368092084 175.35260322596 L 310.11368092084 187.07135322596 L 299.51993092084 187.07135322596 L 299.51993092084 226.44635322596 L 310.11368092084 226.44635322596 Z"/></svg>